# Blender v2.71 (sub 0) OBJ File: 'rocket.blend'
# www.blender.org
o Sphere_Sphere.001
v 0.191342 -0.000000 -0.461940
v 0.353554 -0.000000 -0.353553
v 0.461940 -0.000000 -0.191342
v 0.500000 0.000000 0.000000
v 0.176777 0.073223 -0.461940
v 0.326641 0.135299 -0.353553
v 0.426777 0.176777 -0.191342
v 0.461940 0.191342 -0.000000
v 0.135299 0.135299 -0.461940
v 0.250000 0.250000 -0.353554
v 0.326641 0.326641 -0.191342
v 0.353553 0.353553 -0.000000
v 0.073223 0.176776 -0.461940
v 0.135299 0.326640 -0.353554
v 0.176777 0.426776 -0.191342
v 0.191342 0.461940 -0.000000
v 0.000000 0.191341 -0.461940
v 0.000000 0.353553 -0.353554
v 0.000000 0.461940 -0.191342
v 0.000000 0.500000 -0.000000
v -0.073223 0.176776 -0.461940
v -0.135299 0.326640 -0.353554
v -0.176777 0.426776 -0.191342
v -0.191342 0.461940 -0.000000
v 0.000000 -0.000000 -0.500000
v -0.135299 0.135299 -0.461940
v -0.250000 0.250000 -0.353554
v -0.326641 0.326640 -0.191342
v -0.353553 0.353553 -0.000000
v -0.176777 0.073223 -0.461940
v -0.326641 0.135299 -0.353554
v -0.426777 0.176776 -0.191342
v -0.461940 0.191342 -0.000000
v -0.191342 -0.000000 -0.461940
v -0.353553 -0.000000 -0.353553
v -0.461940 -0.000000 -0.191342
v -0.500000 -0.000000 -0.000000
v -0.176776 -0.073224 -0.461940
v -0.326641 -0.135299 -0.353553
v -0.426776 -0.176777 -0.191342
v -0.461940 -0.191342 0.000000
v -0.135299 -0.135299 -0.461940
v -0.250000 -0.250000 -0.353553
v -0.326640 -0.326641 -0.191342
v -0.353553 -0.353553 0.000000
v -0.073223 -0.176777 -0.461940
v -0.135299 -0.326641 -0.353553
v -0.176776 -0.426777 -0.191341
v -0.191341 -0.461940 0.000000
v 0.000000 -0.191342 -0.461940
v 0.000000 -0.353553 -0.353553
v 0.000000 -0.461940 -0.191341
v 0.000000 -0.500000 0.000000
v 0.073223 -0.176777 -0.461940
v 0.135299 -0.326641 -0.353553
v 0.176777 -0.426777 -0.191341
v 0.191342 -0.461939 0.000000
v 0.135299 -0.135299 -0.461940
v 0.250000 -0.250000 -0.353553
v 0.326641 -0.326641 -0.191341
v 0.353554 -0.353553 0.000000
v 0.176777 -0.073224 -0.461940
v 0.326641 -0.135299 -0.353553
v 0.426777 -0.176777 -0.191342
v 0.461940 -0.191341 0.000000
v 0.500000 0.000000 0.500000
v 0.461940 0.191342 0.500000
v 0.353553 0.353553 0.500000
v 0.191342 0.461940 0.500000
v -0.000000 0.500000 0.500000
v -0.191342 0.461940 0.500000
v -0.353553 0.353553 0.500000
v -0.461940 0.191342 0.500000
v -0.500000 -0.000000 0.500000
v -0.461940 -0.191342 0.500000
v -0.353553 -0.353553 0.500000
v -0.191342 -0.461940 0.500000
v 0.000000 -0.500000 0.500000
v 0.191342 -0.461939 0.500000
v 0.353554 -0.353553 0.500000
v 0.461940 -0.191341 0.500000
vt 0.447203 0.236991
vt 0.594541 0.270170
vt 0.562372 0.398931
vt 0.734961 0.332874
vt 0.695932 0.429165
vt 0.860068 0.423602
vt 0.831189 0.473376
vt 0.426833 0.379350
vt 0.551147 0.521505
vt 0.682996 0.524667
vt 0.820880 0.527424
vt 0.417413 0.517496
vt 0.559479 0.644855
vt 0.693591 0.620236
vt 0.828701 0.581641
vt 0.589432 0.776406
vt 0.436101 0.807002
vt 0.730000 0.716168
vt 0.854866 0.631528
vt 0.603927 0.272141
vt 0.570905 0.400686
vt 0.435499 0.380205
vt 0.743927 0.335775
vt 0.704261 0.431804
vt 0.868430 0.427330
vt 0.839221 0.476911
vt 0.558867 0.523181
vt 0.425162 0.518286
vt 0.690692 0.527218
vt 0.828554 0.530889
vt 0.566381 0.646584
vt 0.700654 0.622855
vt 0.836016 0.585157
vt 0.595461 0.778332
vt 0.441930 0.807910
vt 0.736426 0.719027
vt 0.861850 0.635216
vt 0.601152 0.269339
vt 0.568132 0.397885
vt 0.432725 0.377406
vt 0.741153 0.332972
vt 0.701487 0.429001
vt 0.865656 0.424525
vt 0.836449 0.474107
vt 0.556095 0.520381
vt 0.422390 0.515486
vt 0.687920 0.524416
vt 0.825782 0.528085
vt 0.563610 0.643783
vt 0.424611 0.655497
vt 0.697883 0.620052
vt 0.833245 0.582353
vt 0.592692 0.775530
vt 0.733656 0.716224
vt 0.859079 0.632411
vt 0.598147 0.270501
vt 0.565979 0.399262
vt 0.430440 0.379680
vt 0.738566 0.333204
vt 0.699538 0.429494
vt 0.863673 0.423930
vt 0.834795 0.473704
vt 0.554754 0.521835
vt 0.421020 0.517826
vt 0.686603 0.524996
vt 0.824486 0.527752
vt 0.563086 0.645185
vt 0.424168 0.657819
vt 0.697199 0.620565
vt 0.832309 0.581969
vt 0.967919 0.530865
vt 0.975567 0.535304
vt 0.972795 0.532499
vt 0.971524 0.531190
vt 0.593040 0.776737
vt 0.439709 0.807333
vt 0.733609 0.716497
vt 0.858474 0.631855
vt 0.048267 0.512355
vt 0.053004 0.361479
vt 0.052287 0.658728
vt 0.053287 0.507901
vt 0.420561 0.657489
vt 0.048267 0.663185
vt 0.056059 0.510697
vt 0.439161 0.805110
vt 0.053834 0.809075
vt 0.050810 0.813518
vt 0.427382 0.658296
vt 0.055058 0.661523
vt 0.056611 0.361809
vt 0.065676 0.210604
vt 0.054416 0.813849
vt 0.051873 0.663515
vt 0.061797 0.359855
vt 0.071863 0.208713
vt 0.056603 0.811871
vt 0.051874 0.512685
vt 0.454038 0.235185
vt 0.059023 0.357060
vt 0.062068 0.210274
vt 0.163574 0.694695
vt 0.102936 0.548302
vt 0.102936 0.389848
vt 0.456813 0.237985
vt 0.450810 0.237322
vt 0.069088 0.205918
vt 0.163574 0.243456
vt 0.275617 0.131412
vt 0.422009 0.070774
vt 0.580464 0.070774
vt 0.838901 0.243456
vt 0.726857 0.131412
vt 0.899538 0.389849
vt 0.899538 0.548303
vt 0.838900 0.694696
vt 0.726856 0.806740
vt 0.422010 0.867377
vt 0.580464 0.867377
vt 0.275617 0.806739
vn 0.962600 0.191500 -0.191500
vn 0.820300 0.163200 -0.548100
vn 0.552200 0.109800 -0.826400
vn 0.816100 0.545300 -0.191500
vn 0.695400 0.464700 -0.548100
vn 0.468100 0.312800 -0.826400
vn 0.545300 0.816100 -0.191500
vn 0.464700 0.695400 -0.548100
vn 0.312800 0.468100 -0.826400
vn 0.191500 0.962600 -0.191500
vn 0.163200 0.820300 -0.548100
vn 0.109800 0.552200 -0.826400
vn -0.191500 0.962600 -0.191500
vn -0.163200 0.820300 -0.548100
vn -0.109800 0.552200 -0.826400
vn -0.545300 0.816100 -0.191500
vn -0.464700 0.695400 -0.548100
vn -0.312800 0.468100 -0.826400
vn -0.816100 0.545300 -0.191500
vn -0.695400 0.464700 -0.548100
vn -0.468100 0.312800 -0.826400
vn -0.962600 0.191500 -0.191500
vn -0.820300 0.163200 -0.548100
vn -0.552200 0.109800 -0.826400
vn -0.962600 -0.191500 -0.191500
vn -0.820300 -0.163200 -0.548100
vn -0.552200 -0.109800 -0.826400
vn -0.816100 -0.545300 -0.191500
vn -0.695400 -0.464700 -0.548100
vn -0.468100 -0.312800 -0.826400
vn -0.545300 -0.816100 -0.191500
vn -0.464700 -0.695400 -0.548100
vn -0.312800 -0.468100 -0.826400
vn -0.191500 -0.962600 -0.191500
vn -0.163200 -0.820300 -0.548100
vn -0.109800 -0.552200 -0.826400
vn 0.191500 -0.962600 -0.191500
vn 0.163200 -0.820300 -0.548100
vn 0.109800 -0.552200 -0.826400
vn 0.545300 -0.816100 -0.191500
vn 0.464700 -0.695400 -0.548100
vn 0.312800 -0.468100 -0.826400
vn 0.816100 -0.545300 -0.191500
vn 0.695400 -0.464700 -0.548100
vn 0.468100 -0.312800 -0.826400
vn 0.194900 0.038800 -0.980000
vn 0.165300 0.110400 -0.980000
vn 0.110400 0.165300 -0.980000
vn 0.038800 0.194900 -0.980000
vn -0.038800 0.194900 -0.980000
vn -0.110400 0.165300 -0.980000
vn -0.165300 0.110400 -0.980000
vn -0.194900 0.038800 -0.980000
vn -0.194900 -0.038800 -0.980000
vn -0.165300 -0.110400 -0.980000
vn -0.110400 -0.165300 -0.980000
vn -0.038800 -0.194900 -0.980000
vn 0.038800 -0.194900 -0.980000
vn 0.110400 -0.165300 -0.980000
vn 0.165300 -0.110400 -0.980000
vn 0.962600 -0.191500 -0.191500
vn 0.820300 -0.163200 -0.548100
vn 0.552200 -0.109800 -0.826400
vn 0.194900 -0.038800 -0.980000
vn 0.831500 0.555600 0.000000
vn -0.555600 -0.831500 0.000000
vn 0.555600 0.831500 0.000000
vn -0.555600 0.831500 -0.000000
vn -0.195100 -0.980800 0.000000
vn 0.195100 0.980800 0.000000
vn -0.831500 0.555600 -0.000000
vn 0.195100 -0.980800 0.000000
vn 0.980800 -0.195100 0.000000
vn -0.195100 0.980800 -0.000000
vn -0.980800 0.195100 -0.000000
vn 0.555600 -0.831500 0.000000
vn -0.980800 -0.195100 -0.000000
vn 0.980800 0.195100 0.000000
vn 0.831500 -0.555600 0.000000
vn -0.831500 -0.555600 -0.000000
vn -0.000000 0.000000 1.000000
s off
f 4/1/1 3/2/1 7/3/1
f 3/2/2 2/4/2 6/5/2
f 1/6/3 5/7/3 6/5/3
f 8/8/4 7/3/4 11/9/4
f 6/5/5 10/10/5 11/9/5
f 6/5/6 5/7/6 9/11/6
f 12/12/7 11/9/7 15/13/7
f 11/9/8 10/10/8 14/14/8
f 9/11/9 13/15/9 14/14/9
f 15/13/10 19/16/10 20/17/10
f 14/14/11 18/18/11 19/16/11
f 14/14/12 13/15/12 17/19/12
f 19/20/13 23/21/13 24/22/13
f 18/23/14 22/24/14 23/21/14
f 17/25/15 21/26/15 22/24/15
f 23/21/16 28/27/16 29/28/16
f 22/24/17 27/29/17 28/27/17
f 21/26/18 26/30/18 27/29/18
f 29/28/19 28/27/19 32/31/19
f 27/29/20 31/32/20 32/31/20
f 26/30/21 30/33/21 31/32/21
f 32/31/22 36/34/22 37/35/22
f 32/31/23 31/32/23 35/36/23
f 30/33/24 34/37/24 35/36/24
f 36/38/25 40/39/25 41/40/25
f 36/38/26 35/41/26 39/42/26
f 34/43/27 38/44/27 39/42/27
f 40/39/28 44/45/28 45/46/28
f 40/39/29 39/42/29 43/47/29
f 39/42/30 38/44/30 42/48/30
f 44/45/31 48/49/31 49/50/31
f 44/45/32 43/47/32 47/51/32
f 42/48/33 46/52/33 47/51/33
f 49/50/34 48/49/34 52/53/34
f 48/49/35 47/51/35 51/54/35
f 46/52/36 50/55/36 51/54/36
f 52/56/37 56/57/37 57/58/37
f 51/59/38 55/60/38 56/57/38
f 50/61/39 54/62/39 55/60/39
f 56/57/40 60/63/40 61/64/40
f 56/57/41 55/60/41 59/65/41
f 54/62/42 58/66/42 59/65/42
f 60/63/43 64/67/43 65/68/43
f 60/63/44 59/65/44 63/69/44
f 58/66/45 62/70/45 63/69/45
f 1/6/46 25/71/46 5/7/46
f 5/7/47 25/71/47 9/11/47
f 9/11/48 25/71/48 13/15/48
f 13/15/49 25/71/49 17/19/49
f 17/25/50 25/72/50 21/26/50
f 21/26/51 25/72/51 26/30/51
f 26/30/52 25/72/52 30/33/52
f 30/33/53 25/72/53 34/37/53
f 34/43/54 25/73/54 38/44/54
f 38/44/55 25/73/55 42/48/55
f 42/48/56 25/73/56 46/52/56
f 46/52/57 25/73/57 50/55/57
f 50/61/58 25/74/58 54/62/58
f 54/62/59 25/74/59 58/66/59
f 58/66/60 25/74/60 62/70/60
f 64/67/61 3/75/61 4/76/61
f 63/69/62 2/77/62 3/75/62
f 62/70/63 1/78/63 2/77/63
f 62/70/64 25/74/64 1/78/64
f 12/12/65 68/79/65 67/80/65
f 49/50/66 77/81/66 76/82/66
f 16/83/67 69/84/67 68/79/67
f 24/22/68 29/28/68 72/85/68
f 53/86/69 78/87/69 77/81/69
f 20/17/70 70/88/70 69/84/70
f 29/28/71 33/89/71 73/90/71
f 57/58/72 79/91/72 78/92/72
f 4/76/73 66/93/73 81/94/73
f 24/22/74 71/95/74 70/96/74
f 33/89/75 37/35/75 74/97/75
f 61/64/76 80/98/76 79/91/76
f 37/99/77 41/40/77 75/100/77
f 8/8/78 67/80/78 66/101/78
f 65/68/79 81/94/79 80/98/79
f 41/40/80 45/46/80 76/82/80
f 79/102/81 80/103/81 81/104/81
f 8/8/1 4/1/1 7/3/1
f 7/3/2 3/2/2 6/5/2
f 2/4/3 1/6/3 6/5/3
f 12/12/4 8/8/4 11/9/4
f 7/3/5 6/5/5 11/9/5
f 10/10/6 6/5/6 9/11/6
f 16/83/7 12/12/7 15/13/7
f 15/13/8 11/9/8 14/14/8
f 10/10/9 9/11/9 14/14/9
f 16/83/10 15/13/10 20/17/10
f 15/13/11 14/14/11 19/16/11
f 18/18/12 14/14/12 17/19/12
f 20/105/13 19/20/13 24/22/13
f 19/20/14 18/23/14 23/21/14
f 18/23/15 17/25/15 22/24/15
f 24/22/16 23/21/16 29/28/16
f 23/21/17 22/24/17 28/27/17
f 22/24/18 21/26/18 27/29/18
f 33/89/19 29/28/19 32/31/19
f 28/27/20 27/29/20 32/31/20
f 27/29/21 26/30/21 31/32/21
f 33/89/22 32/31/22 37/35/22
f 36/34/23 32/31/23 35/36/23
f 31/32/24 30/33/24 35/36/24
f 37/99/25 36/38/25 41/40/25
f 40/39/26 36/38/26 39/42/26
f 35/41/27 34/43/27 39/42/27
f 41/40/28 40/39/28 45/46/28
f 44/45/29 40/39/29 43/47/29
f 43/47/30 39/42/30 42/48/30
f 45/46/31 44/45/31 49/50/31
f 48/49/32 44/45/32 47/51/32
f 43/47/33 42/48/33 47/51/33
f 53/86/34 49/50/34 52/53/34
f 52/53/35 48/49/35 51/54/35
f 47/51/36 46/52/36 51/54/36
f 53/106/37 52/56/37 57/58/37
f 52/56/38 51/59/38 56/57/38
f 51/59/39 50/61/39 55/60/39
f 57/58/40 56/57/40 61/64/40
f 60/63/41 56/57/41 59/65/41
f 55/60/42 54/62/42 59/65/42
f 61/64/43 60/63/43 65/68/43
f 64/67/44 60/63/44 63/69/44
f 59/65/45 58/66/45 63/69/45
f 65/68/61 64/67/61 4/76/61
f 64/67/62 63/69/62 3/75/62
f 63/69/63 62/70/63 2/77/63
f 8/8/65 12/12/65 67/80/65
f 45/46/66 49/50/66 76/82/66
f 12/12/67 16/83/67 68/79/67
f 71/95/68 24/22/68 72/85/68
f 49/50/69 53/86/69 77/81/69
f 16/83/70 20/17/70 69/84/70
f 72/85/71 29/28/71 73/90/71
f 53/106/72 57/58/72 78/92/72
f 65/68/73 4/76/73 81/94/73
f 20/105/74 24/22/74 70/96/74
f 73/90/75 33/89/75 74/97/75
f 57/58/76 61/64/76 79/91/76
f 74/107/77 37/99/77 75/100/77
f 4/1/78 8/8/78 66/101/78
f 61/64/79 65/68/79 80/98/79
f 75/100/80 41/40/80 76/82/80
f 81/104/81 66/108/81 67/109/81
f 67/109/81 68/110/81 69/111/81
f 71/112/81 81/104/81 70/113/81
f 71/112/81 72/114/81 73/115/81
f 73/115/81 74/116/81 75/117/81
f 77/118/81 73/115/81 76/119/81
f 77/118/81 78/120/81 79/102/81
f 81/104/81 67/109/81 69/111/81
f 73/115/81 81/104/81 71/112/81
f 81/104/81 73/115/81 79/102/81
f 81/104/81 69/111/81 70/113/81
f 73/115/81 75/117/81 76/119/81
f 73/115/81 77/118/81 79/102/81
