# Blender v2.71 (sub 0) OBJ File: 'sword.blend'
# www.blender.org
o Cube.001
v 0.125000 -3.500000 -0.125000
v 0.125000 -3.500000 0.125000
v -0.125000 -3.500000 0.125000
v -0.125000 -3.500000 -0.125000
v 0.125000 -2.500000 -0.125000
v 0.124999 -2.500000 0.125000
v -0.125000 -2.500000 0.125000
v -0.125000 -2.500000 -0.125000
v 0.250000 -2.500000 -1.000000
v 0.250000 -2.500000 1.000000
v -0.250000 -2.500000 1.000000
v -0.250000 -2.500000 -1.000000
v 0.250001 2.500000 -0.999999
v 0.249999 2.500000 1.000001
v -0.250000 2.500000 1.000000
v -0.250000 2.500000 -1.000000
vt 0.694248 0.546417
vt 0.479839 0.546416
vt 0.479840 0.492814
vt 0.051020 0.546416
vt 0.051020 0.492813
vt 0.265430 0.492814
vt 0.265430 0.760826
vt 0.265430 0.546416
vt 0.265430 0.278404
vt 0.479840 0.278404
vt 0.694249 0.492815
vt 0.908658 0.492815
vt 0.312962 0.466659
vt 0.312962 0.493020
vt 0.016010 0.493022
vt 0.795567 0.493064
vt 0.498561 0.493023
vt 0.498562 0.466659
vt 0.312962 0.044867
vt 0.498562 0.044867
vt 0.498558 0.914813
vt 0.312959 0.914811
vt 0.981212 0.466728
vt 0.981210 0.493096
vt 0.479839 0.760826
vt 0.908658 0.546418
vt 0.016010 0.466661
vt 0.795569 0.466697
vn 0.000000 -1.000000 0.000000
vn 0.000000 1.000000 0.000000
vn 1.000000 0.000000 0.000000
vn -0.000000 -0.000000 1.000000
vn -1.000000 -0.000000 -0.000000
vn 0.000000 0.000000 -1.000000
s off
f 1/1/1 2/2/1 3/3/1
f 5/4/2 8/5/2 7/6/2
f 5/7/3 6/8/3 2/2/3
f 2/2/4 6/8/4 7/6/4
f 7/6/5 8/9/5 4/10/5
f 1/1/6 4/11/6 8/12/6
f 10/13/1 11/14/1 12/15/1
f 16/16/2 15/17/2 14/18/2
f 9/19/3 13/20/3 14/18/3
f 10/13/4 14/18/4 15/17/4
f 15/17/5 16/21/5 12/22/5
f 9/23/6 12/24/6 16/16/6
f 4/11/1 1/1/1 3/3/1
f 6/8/2 5/4/2 7/6/2
f 1/25/3 5/7/3 2/2/3
f 3/3/4 2/2/4 7/6/4
f 3/3/5 7/6/5 4/10/5
f 5/26/6 1/1/6 8/12/6
f 9/27/1 10/13/1 12/15/1
f 13/28/2 16/16/2 14/18/2
f 10/13/3 9/19/3 14/18/3
f 11/14/4 10/13/4 15/17/4
f 11/14/5 15/17/5 12/22/5
f 13/28/6 9/23/6 16/16/6
