# Blender v2.71 (sub 0) OBJ File: ''
# www.blender.org
o Sphere
v 0.095671 0.000000 -0.230970
v 0.176777 0.000000 -0.176777
v 0.230970 0.000000 -0.095671
v 0.250000 -0.000000 -0.000000
v 0.088388 0.036612 -0.230970
v 0.163320 0.067650 -0.176777
v 0.213388 0.088388 -0.095671
v 0.230970 0.095671 -0.000000
v 0.067649 0.067650 -0.230970
v 0.125000 0.125000 -0.176777
v 0.163320 0.163320 -0.095671
v 0.176777 0.176777 -0.000000
v 0.036611 0.088388 -0.230970
v 0.067649 0.163320 -0.176777
v 0.088388 0.213388 -0.095671
v 0.095671 0.230970 -0.000000
v -0.000000 0.095671 -0.230970
v -0.000000 0.176777 -0.176777
v -0.000000 0.230970 -0.095671
v 0.000000 0.250000 0.000000
v -0.036612 0.088388 -0.230970
v -0.067650 0.163320 -0.176777
v -0.088388 0.213388 -0.095671
v -0.095671 0.230970 0.000000
v -0.000000 -0.000000 -0.250000
v -0.067650 0.067650 -0.230970
v -0.125000 0.125000 -0.176777
v -0.163320 0.163320 -0.095671
v -0.176777 0.176777 0.000000
v -0.088389 0.036612 -0.230970
v -0.163321 0.067649 -0.176776
v -0.213388 0.088388 -0.095671
v -0.230970 0.095671 0.000000
v -0.095671 -0.000000 -0.230970
v -0.176777 -0.000000 -0.176776
v -0.230970 -0.000000 -0.095671
v -0.250000 -0.000000 0.000000
v -0.088389 -0.036612 -0.230970
v -0.163321 -0.067650 -0.176776
v -0.213388 -0.088388 -0.095671
v -0.230970 -0.095671 0.000000
v -0.067650 -0.067650 -0.230970
v -0.125000 -0.125000 -0.176777
v -0.163320 -0.163320 -0.095671
v -0.176777 -0.176777 0.000000
v 0.230970 -0.095671 0.400000
v -0.036612 -0.088388 -0.230970
v -0.067650 -0.163320 -0.176777
v -0.088388 -0.213388 -0.095671
v -0.095671 -0.230970 0.000000
v 0.176777 -0.176777 0.400000
v 0.095672 -0.230970 0.400000
v 0.000001 -0.250000 0.400000
v -0.000000 -0.095671 -0.230970
v -0.000000 -0.176777 -0.176777
v 0.000000 -0.230970 -0.095671
v 0.000000 -0.250000 -0.000000
v -0.095670 -0.230970 0.400000
v -0.176776 -0.176777 0.400000
v -0.230969 -0.095671 0.400000
v 0.036611 -0.088388 -0.230970
v 0.067649 -0.163320 -0.176777
v 0.088388 -0.213388 -0.095671
v 0.095671 -0.230970 -0.000000
v -0.249999 -0.000000 0.400000
v -0.230969 0.095671 0.400000
v -0.176776 0.176777 0.400000
v 0.067649 -0.067649 -0.230970
v 0.125000 -0.125000 -0.176777
v 0.163320 -0.163320 -0.095671
v 0.176777 -0.176777 -0.000000
v -0.095670 0.230970 0.400000
v 0.000001 0.250000 0.400000
v 0.095671 0.230970 0.400000
v 0.088388 -0.036612 -0.230970
v 0.163320 -0.067649 -0.176777
v 0.213388 -0.088388 -0.095671
v 0.230970 -0.095671 -0.000000
v 0.176777 0.176777 0.400000
v 0.230970 0.095671 0.400000
v 0.250001 0.000000 0.400000
vt 0.196149 0.740585
vt 0.247711 0.796478
vt 0.185912 0.867616
vt 0.259717 0.697719
vt 0.297325 0.734644
vt 0.317422 0.652800
vt 0.339443 0.671530
vt 0.315369 0.836698
vt 0.273659 0.924234
vt 0.346629 0.759533
vt 0.367633 0.682433
vt 0.395599 0.858522
vt 0.374573 0.957574
vt 0.405171 0.769170
vt 0.399729 0.683255
vt 0.487672 0.861677
vt 0.470831 0.760234
vt 0.432431 0.672002
vt 0.642379 0.588337
vt 0.609649 0.519322
vt 0.679417 0.475777
vt 0.557613 0.613174
vt 0.540009 0.556080
vt 0.466745 0.617129
vt 0.463849 0.583599
vt 0.566951 0.461613
vt 0.511252 0.510506
vt 0.451332 0.555656
vt 0.513433 0.416664
vt 0.558565 0.347400
vt 0.473518 0.476481
vt 0.431784 0.534569
vt 0.450598 0.387630
vt 0.475825 0.307910
vt 0.429154 0.455263
vt 0.407541 0.521328
vt 0.382196 0.377476
vt 0.383646 0.292847
vt 0.381335 0.448142
vt 0.381005 0.516575
vt 0.250067 0.256357
vt 0.250065 0.000133
vt 0.312548 0.000132
vt 0.313577 0.387910
vt 0.289602 0.305670
vt 0.333938 0.455708
vt 0.354687 0.520436
vt 0.187583 0.256358
vt 0.125100 0.256358
vt 0.125098 0.000134
vt 0.812418 0.256355
vt 0.812418 0.000131
vt 0.874902 0.000131
vt 0.874902 0.256355
vt 0.937386 0.000131
vt 0.250901 0.418745
vt 0.202588 0.346805
vt 0.291176 0.477422
vt 0.331094 0.532403
vt 0.687451 0.256355
vt 0.687451 0.000131
vt 0.749934 0.000131
vt 0.062616 0.256359
vt 0.062614 0.000134
vt 0.749934 0.256355
vt 0.200263 0.467684
vt 0.131461 0.413405
vt 0.257116 0.511450
vt 0.312543 0.551282
vt 0.937385 0.256355
vt 0.999869 0.000131
vt 0.624968 0.256355
vt 0.624967 0.000131
vt 0.000133 0.256359
vt 0.000131 0.000135
vt 0.166857 0.530456
vt 0.083767 0.499627
vt 0.235194 0.554737
vt 0.300947 0.575241
vt 0.500001 0.256355
vt 0.499999 0.000131
vt 0.562483 0.000131
vt 0.187581 0.000133
vt 0.562484 0.256355
vt 0.154307 0.601283
vt 0.227807 0.603270
vt 0.297625 0.601937
vt 0.312550 0.256357
vt 0.375032 0.000132
vt 0.375034 0.256356
vt 0.437516 0.000132
vt 0.437517 0.256356
vt 0.164233 0.673546
vt 0.076516 0.697286
vt 0.236063 0.652485
vt 0.303174 0.628711
vt 0.378461 0.596809
vt 0.118204 0.790066
vt 0.929217 0.887882
vt 0.875299 0.941801
vt 0.604234 0.887882
vt 0.482362 0.969814
vt 0.719363 0.551295
vt 0.626881 0.405606
vt 0.999869 0.256355
vt 0.064713 0.597364
vt 0.575054 0.741182
vt 0.658153 0.616817
vt 0.575054 0.817434
vt 0.604234 0.670735
vt 0.728600 0.587636
vt 0.804852 0.587636
vt 0.929218 0.670735
vt 0.875299 0.616817
vt 0.958398 0.741183
vt 0.958398 0.817435
vt 0.728599 0.970981
vt 0.658152 0.941800
vt 0.804851 0.970981
vn 0.962600 0.191500 -0.191500
vn 0.820300 0.163200 -0.548100
vn 0.552200 0.109800 -0.826400
vn 0.816100 0.545300 -0.191500
vn 0.695400 0.464700 -0.548100
vn 0.468100 0.312800 -0.826400
vn 0.545300 0.816100 -0.191500
vn 0.464700 0.695400 -0.548100
vn 0.312800 0.468100 -0.826400
vn 0.191500 0.962600 -0.191500
vn 0.163200 0.820300 -0.548100
vn 0.109800 0.552200 -0.826400
vn -0.191500 0.962600 -0.191500
vn -0.163200 0.820300 -0.548100
vn -0.109800 0.552200 -0.826400
vn -0.545300 0.816100 -0.191500
vn -0.464700 0.695400 -0.548100
vn -0.312800 0.468100 -0.826400
vn -0.816100 0.545300 -0.191500
vn -0.695400 0.464700 -0.548100
vn -0.468100 0.312800 -0.826400
vn -0.962600 0.191500 -0.191500
vn -0.820300 0.163200 -0.548100
vn -0.552200 0.109800 -0.826400
vn -0.962600 -0.191500 -0.191500
vn -0.820300 -0.163200 -0.548100
vn -0.552200 -0.109800 -0.826400
vn 0.980800 -0.195100 -0.000000
vn -0.816100 -0.545300 -0.191500
vn -0.695400 -0.464700 -0.548100
vn -0.468100 -0.312800 -0.826400
vn 0.831500 0.555600 -0.000000
vn -0.831500 0.555600 0.000000
vn -0.555600 0.831500 0.000000
vn -0.545300 -0.816100 -0.191500
vn -0.464700 -0.695400 -0.548100
vn -0.312800 -0.468100 -0.826400
vn -0.980800 -0.195100 0.000000
vn 0.555600 0.831500 -0.000000
vn -0.980800 0.195100 0.000000
vn -0.191500 -0.962600 -0.191500
vn -0.163200 -0.820300 -0.548100
vn -0.109800 -0.552200 -0.826400
vn -0.195100 0.980800 0.000000
vn -0.831500 -0.555600 0.000000
vn 0.195100 0.980800 -0.000000
vn 0.191500 -0.962600 -0.191500
vn 0.163200 -0.820300 -0.548100
vn 0.109800 -0.552200 -0.826400
vn -0.195100 -0.980800 0.000000
vn 0.980800 0.195100 -0.000000
vn -0.555600 -0.831500 0.000000
vn 0.545300 -0.816100 -0.191500
vn 0.464700 -0.695400 -0.548100
vn 0.312800 -0.468100 -0.826400
vn 0.831500 -0.555600 -0.000000
vn 0.555600 -0.831500 -0.000000
vn 0.195100 -0.980800 -0.000000
vn 0.816100 -0.545300 -0.191500
vn 0.695400 -0.464700 -0.548100
vn 0.468100 -0.312800 -0.826400
vn 0.194900 0.038800 -0.980000
vn 0.165300 0.110400 -0.980000
vn 0.110400 0.165300 -0.980000
vn 0.038800 0.194900 -0.980000
vn -0.038800 0.194900 -0.980000
vn -0.110400 0.165300 -0.980000
vn -0.165300 0.110400 -0.980000
vn -0.194900 0.038800 -0.980000
vn -0.194900 -0.038800 -0.980000
vn -0.165300 -0.110400 -0.980000
vn -0.110400 -0.165300 -0.980000
vn -0.038800 -0.194900 -0.980000
vn 0.038800 -0.194900 -0.980000
vn 0.110400 -0.165300 -0.980000
vn 0.165300 -0.110400 -0.980000
vn 0.962600 -0.191500 -0.191500
vn 0.820300 -0.163200 -0.548100
vn 0.552200 -0.109800 -0.826400
vn 0.194900 -0.038800 -0.980000
vn 0.000000 -0.000000 1.000000
s off
f 3/1/1 7/2/1 8/3/1
f 2/4/2 6/5/2 7/2/2
f 1/6/3 5/7/3 6/5/3
f 7/2/4 11/8/4 12/9/4
f 6/5/5 10/10/5 11/8/5
f 5/7/6 9/11/6 10/10/6
f 11/8/7 15/12/7 16/13/7
f 10/10/8 14/14/8 15/12/8
f 10/10/9 9/11/9 13/15/9
f 16/13/10 15/12/10 19/16/10
f 14/14/11 18/17/11 19/16/11
f 13/15/12 17/18/12 18/17/12
f 19/19/13 23/20/13 24/21/13
f 18/22/14 22/23/14 23/20/14
f 17/24/15 21/25/15 22/23/15
f 24/21/16 23/20/16 28/26/16
f 23/20/17 22/23/17 27/27/17
f 22/23/18 21/25/18 26/28/18
f 28/26/19 32/29/19 33/30/19
f 27/27/20 31/31/20 32/29/20
f 26/28/21 30/32/21 31/31/21
f 32/29/22 36/33/22 37/34/22
f 31/31/23 35/35/23 36/33/23
f 30/32/24 34/36/24 35/35/24
f 36/33/25 40/37/25 41/38/25
f 36/33/26 35/35/26 39/39/26
f 34/36/27 38/40/27 39/39/27
f 4/41/28 81/42/28 46/43/28
f 40/37/29 44/44/29 45/45/29
f 39/39/30 43/46/30 44/44/30
f 38/40/31 42/47/31 43/46/31
f 8/48/32 12/49/32 79/50/32
f 33/51/33 66/52/33 67/53/33
f 29/54/34 67/53/34 72/55/34
f 44/44/35 49/56/35 50/57/35
f 44/44/36 43/46/36 48/58/36
f 42/47/37 47/59/37 48/58/37
f 41/60/38 60/61/38 65/62/38
f 16/63/39 74/64/39 79/50/39
f 37/65/40 65/62/40 66/52/40
f 49/56/41 56/66/41 57/67/41
f 49/56/42 48/58/42 55/68/42
f 47/59/43 54/69/43 55/68/43
f 24/70/44 72/55/44 73/71/44
f 45/72/45 59/73/45 60/61/45
f 20/74/46 73/75/46 74/64/46
f 56/66/47 63/76/47 64/77/47
f 56/66/48 55/68/48 62/78/48
f 54/69/49 61/79/49 62/78/49
f 57/80/50 53/81/50 58/82/50
f 8/48/51 80/83/51 81/42/51
f 50/84/52 58/82/52 59/73/52
f 64/77/53 63/76/53 70/85/53
f 62/78/54 69/86/54 70/85/54
f 61/79/55 68/87/55 69/86/55
f 78/88/56 46/43/56 51/89/56
f 71/90/57 51/89/57 52/91/57
f 64/92/58 52/91/58 53/81/58
f 70/85/59 77/93/59 78/94/59
f 70/85/60 69/86/60 76/95/60
f 68/87/61 75/96/61 76/95/61
f 1/6/62 25/97/62 5/7/62
f 5/7/63 25/97/63 9/11/63
f 9/11/64 25/97/64 13/15/64
f 13/15/65 25/97/65 17/18/65
f 17/24/66 25/97/66 21/25/66
f 21/25/67 25/97/67 26/28/67
f 26/28/68 25/97/68 30/32/68
f 30/32/69 25/97/69 34/36/69
f 34/36/70 25/97/70 38/40/70
f 38/40/71 25/97/71 42/47/71
f 42/47/72 25/97/72 47/59/72
f 47/59/73 25/97/73 54/69/73
f 54/69/74 25/97/74 61/79/74
f 61/79/75 25/97/75 68/87/75
f 68/87/76 25/97/76 75/96/76
f 77/93/77 3/1/77 4/98/77
f 76/95/78 2/4/78 3/1/78
f 75/96/79 1/6/79 2/4/79
f 75/96/80 25/97/80 1/6/80
f 65/99/81 60/100/81 52/101/81
f 4/98/1 3/1/1 8/3/1
f 3/1/2 2/4/2 7/2/2
f 2/4/3 1/6/3 6/5/3
f 8/3/4 7/2/4 12/9/4
f 7/2/5 6/5/5 11/8/5
f 6/5/6 5/7/6 10/10/6
f 12/9/7 11/8/7 16/13/7
f 11/8/8 10/10/8 15/12/8
f 14/14/9 10/10/9 13/15/9
f 20/102/10 16/13/10 19/16/10
f 15/12/11 14/14/11 19/16/11
f 14/14/12 13/15/12 18/17/12
f 20/103/13 19/19/13 24/21/13
f 19/19/14 18/22/14 23/20/14
f 18/22/15 17/24/15 22/23/15
f 29/104/16 24/21/16 28/26/16
f 28/26/17 23/20/17 27/27/17
f 27/27/18 22/23/18 26/28/18
f 29/104/19 28/26/19 33/30/19
f 28/26/20 27/27/20 32/29/20
f 27/27/21 26/28/21 31/31/21
f 33/30/22 32/29/22 37/34/22
f 32/29/23 31/31/23 36/33/23
f 31/31/24 30/32/24 35/35/24
f 37/34/25 36/33/25 41/38/25
f 40/37/26 36/33/26 39/39/26
f 35/35/27 34/36/27 39/39/27
f 78/88/28 4/41/28 46/43/28
f 41/38/29 40/37/29 45/45/29
f 40/37/30 39/39/30 44/44/30
f 39/39/31 38/40/31 43/46/31
f 80/83/32 8/48/32 79/50/32
f 29/54/33 33/51/33 67/53/33
f 24/70/34 29/54/34 72/55/34
f 45/45/35 44/44/35 50/57/35
f 49/56/36 44/44/36 48/58/36
f 43/46/37 42/47/37 48/58/37
f 37/65/38 41/60/38 65/62/38
f 12/49/39 16/63/39 79/50/39
f 33/51/40 37/65/40 66/52/40
f 50/57/41 49/56/41 57/67/41
f 56/66/42 49/56/42 55/68/42
f 48/58/43 47/59/43 55/68/43
f 20/105/44 24/70/44 73/71/44
f 41/60/45 45/72/45 60/61/45
f 16/63/46 20/74/46 74/64/46
f 57/67/47 56/66/47 64/77/47
f 63/76/48 56/66/48 62/78/48
f 55/68/49 54/69/49 62/78/49
f 50/84/50 57/80/50 58/82/50
f 4/41/51 8/48/51 81/42/51
f 45/72/52 50/84/52 59/73/52
f 71/106/53 64/77/53 70/85/53
f 63/76/54 62/78/54 70/85/54
f 62/78/55 61/79/55 69/86/55
f 71/90/56 78/88/56 51/89/56
f 64/92/57 71/90/57 52/91/57
f 57/80/58 64/92/58 53/81/58
f 71/106/59 70/85/59 78/94/59
f 77/93/60 70/85/60 76/95/60
f 69/86/61 68/87/61 76/95/61
f 78/94/77 77/93/77 4/98/77
f 77/93/78 76/95/78 3/1/78
f 76/95/79 75/96/79 2/4/79
f 46/107/81 80/108/81 51/109/81
f 46/107/81 81/110/81 80/108/81
f 80/108/81 79/111/81 74/112/81
f 72/113/81 80/108/81 73/114/81
f 72/113/81 67/115/81 66/116/81
f 80/108/81 52/101/81 51/109/81
f 58/117/81 53/118/81 59/119/81
f 60/100/81 59/119/81 52/101/81
f 72/113/81 66/116/81 65/99/81
f 80/108/81 74/112/81 73/114/81
f 52/101/81 80/108/81 72/113/81
f 72/113/81 65/99/81 52/101/81
f 59/119/81 53/118/81 52/101/81
