# Blender v2.71 (sub 0) OBJ File: ''
# www.blender.org
o Sphere
v -0.191342 0.461940 0.000000
v -0.353553 0.353553 0.000000
v -0.461940 0.191342 0.000000
v -0.500000 -0.000000 0.000000
v -0.461940 -0.191342 0.000000
v -0.353553 -0.353553 0.000000
v -0.191342 -0.461940 0.000000
v -0.176777 0.461940 -0.073223
v -0.326641 0.353553 -0.135299
v -0.426777 0.191342 -0.176777
v -0.461940 -0.000000 -0.191342
v -0.426777 -0.191342 -0.176777
v -0.326641 -0.353553 -0.135299
v -0.176777 -0.461940 -0.073223
v -0.135299 0.461940 -0.135299
v -0.250000 0.353553 -0.250000
v -0.326641 0.191342 -0.326641
v -0.353553 -0.000000 -0.353553
v -0.326641 -0.191342 -0.326641
v -0.250000 -0.353553 -0.250000
v -0.135299 -0.461940 -0.135299
v -0.000000 -0.500000 0.000000
v -0.073223 0.461940 -0.176777
v -0.135299 0.353553 -0.326641
v -0.176777 0.191342 -0.426777
v -0.191342 -0.000000 -0.461940
v -0.176777 -0.191342 -0.426777
v -0.135299 -0.353553 -0.326641
v -0.073223 -0.461940 -0.176777
v -0.000000 0.461940 -0.191342
v -0.000000 0.353553 -0.353553
v -0.000000 0.191342 -0.461940
v -0.000000 -0.000000 -0.500000
v -0.000000 -0.191342 -0.461940
v -0.000000 -0.353553 -0.353553
v -0.000000 -0.461940 -0.191342
v 0.073223 0.461940 -0.176777
v 0.135299 0.353553 -0.326641
v 0.176777 0.191342 -0.426777
v 0.191342 -0.000000 -0.461940
v 0.176777 -0.191342 -0.426777
v 0.135299 -0.353553 -0.326641
v 0.073223 -0.461940 -0.176777
v -0.000000 0.500000 0.000000
v 0.135299 0.461940 -0.135299
v 0.250000 0.353553 -0.250000
v 0.326641 0.191342 -0.326641
v 0.353553 -0.000000 -0.353553
v 0.326641 -0.191342 -0.326641
v 0.250000 -0.353553 -0.250000
v 0.135299 -0.461940 -0.135299
v 0.176777 0.461940 -0.073223
v 0.326641 0.353553 -0.135299
v 0.426777 0.191342 -0.176777
v 0.461940 -0.000000 -0.191342
v 0.426777 -0.191342 -0.176777
v 0.326641 -0.353553 -0.135299
v 0.176777 -0.461940 -0.073223
v 0.191342 0.461940 0.000000
v 0.353553 0.353553 0.000000
v 0.461940 0.191342 0.000000
v 0.500000 -0.000000 0.000000
v 0.461940 -0.191342 0.000000
v 0.353553 -0.353553 0.000000
v 0.191342 -0.461940 0.000000
v 0.176777 0.461940 0.073223
v 0.326641 0.353553 0.135299
v 0.426777 0.191342 0.176777
v 0.461940 -0.000000 0.191342
v 0.426777 -0.191342 0.176777
v 0.326641 -0.353553 0.135299
v 0.176777 -0.461940 0.073223
v 0.135299 0.461940 0.135299
v 0.250000 0.353553 0.250000
v 0.326641 0.191342 0.326641
v 0.353553 -0.000000 0.353554
v 0.326641 -0.191342 0.326641
v 0.250000 -0.353553 0.250000
v 0.135299 -0.461940 0.135299
v 0.073223 0.461940 0.176777
v 0.135299 0.353553 0.326641
v 0.176776 0.191342 0.426777
v 0.191341 -0.000000 0.461940
v 0.176776 -0.191342 0.426777
v 0.135299 -0.353553 0.326641
v 0.073223 -0.461940 0.176777
v -0.000000 0.461940 0.191342
v -0.000000 0.353553 0.353553
v -0.000000 0.191342 0.461940
v -0.000000 -0.000000 0.500000
v -0.000000 -0.191342 0.461940
v -0.000000 -0.353553 0.353553
v -0.000000 -0.461940 0.191342
v -0.073223 0.461940 0.176777
v -0.135299 0.353553 0.326641
v -0.176777 0.191342 0.426777
v -0.191342 -0.000000 0.461940
v -0.176777 -0.191342 0.426777
v -0.135299 -0.353553 0.326641
v -0.073223 -0.461940 0.176777
v -0.135299 0.461940 0.135299
v -0.250000 0.353553 0.250000
v -0.326641 0.191342 0.326641
v -0.353554 -0.000000 0.353553
v -0.326641 -0.191342 0.326641
v -0.250000 -0.353553 0.250000
v -0.135299 -0.461940 0.135299
v -0.176777 0.461940 0.073223
v -0.326641 0.353553 0.135299
v -0.426777 0.191342 0.176776
v -0.461940 -0.000000 0.191341
v -0.426777 -0.191342 0.176776
v -0.326641 -0.353553 0.135299
v -0.176777 -0.461940 0.073223
vt 0.212541 0.024857
vt 0.400237 0.061585
vt 0.346463 0.178539
vt 0.577372 0.136685
vt 0.484480 0.274597
vt 0.733306 0.253517
vt 0.607683 0.383486
vt 0.856252 0.408392
vt 0.717931 0.507124
vt 0.936591 0.591416
vt 0.815843 0.647787
vt 0.971427 0.787328
vt 0.900636 0.807191
vt 0.272049 0.272538
vt 0.150080 0.148830
vt 0.386395 0.387332
vt 0.496655 0.497929
vt 0.606915 0.608526
vt 0.721260 0.723320
vt 0.843229 0.847029
vt 0.177467 0.348072
vt 0.275380 0.488734
vt 0.385627 0.612372
vt 0.508830 0.721261
vt 0.646846 0.817319
vt 0.801957 0.902790
vt 0.056719 0.404443
vt 0.021882 0.208533
vt 0.137059 0.587466
vt 0.260005 0.742340
vt 0.415938 0.859172
vt 0.593072 0.934272
vt 0.780767 0.971001
vt 0.398921 0.064235
vt 0.345146 0.181189
vt 0.190035 0.095718
vt 0.576055 0.139335
vt 0.483162 0.277247
vt 0.731988 0.256168
vt 0.606365 0.386136
vt 0.854934 0.411042
vt 0.716613 0.509774
vt 0.935273 0.594065
vt 0.814525 0.650436
vt 0.970109 0.789976
vt 0.899319 0.809839
vt 0.270732 0.275187
vt 0.148763 0.151479
vt 0.385077 0.389982
vt 0.495337 0.500579
vt 0.605597 0.611176
vt 0.719943 0.725970
vt 0.841912 0.849678
vt 0.176149 0.350721
vt 0.091356 0.191317
vt 0.274062 0.491383
vt 0.384309 0.615021
vt 0.507512 0.723911
vt 0.645529 0.819969
vt 0.800640 0.905439
vt 0.055401 0.407092
vt 0.020565 0.211180
vt 0.135741 0.590115
vt 0.258686 0.744990
vt 0.414620 0.861823
vt 0.591754 0.936923
vt 0.779450 0.973651
vt 0.400495 0.061382
vt 0.346720 0.178336
vt 0.191609 0.092865
vt 0.577629 0.136482
vt 0.484737 0.274393
vt 0.733563 0.253314
vt 0.607940 0.383283
vt 0.856509 0.408189
vt 0.718188 0.506921
vt 0.936848 0.591213
vt 0.816099 0.647584
vt 0.971683 0.787124
vt 0.900893 0.806987
vt 0.272306 0.272334
vt 0.150337 0.148626
vt 0.386652 0.387129
vt 0.496912 0.497726
vt 0.607172 0.608323
vt 0.721517 0.723117
vt 0.843485 0.846826
vt 0.177724 0.347868
vt 0.275636 0.488530
vt 0.385884 0.612168
vt 0.509087 0.721058
vt 0.647103 0.817115
vt 0.802214 0.902586
vt 0.056976 0.404239
vt 0.022139 0.208328
vt 0.137316 0.587262
vt 0.260261 0.742137
vt 0.416195 0.858969
vt 0.593329 0.934069
vt 0.781024 0.970798
vt 0.399639 0.064627
vt 0.345865 0.181581
vt 0.190753 0.096111
vt 0.576774 0.139727
vt 0.483882 0.277639
vt 0.732708 0.256560
vt 0.607085 0.386529
vt 0.855654 0.411436
vt 0.717332 0.510168
vt 0.935992 0.594460
vt 0.815244 0.650831
vt 0.970828 0.790372
vt 0.900037 0.810234
vt 0.271451 0.275580
vt 0.149482 0.151872
vt 0.385796 0.390374
vt 0.496056 0.500972
vt 0.606316 0.611569
vt 0.720661 0.726364
vt 0.842629 0.850073
vt 0.176869 0.351114
vt 0.092075 0.191711
vt 0.274781 0.491776
vt 0.385028 0.615414
vt 0.508231 0.724303
vt 0.646247 0.820361
vt 0.801357 0.905833
vt 0.020115 0.014434
vt 0.191351 0.093069
vt 0.973191 0.981427
vt 0.092673 0.188669
vt 0.018800 0.017081
vt 0.211225 0.027506
vt 0.971875 0.984075
vt 0.020374 0.014229
vt 0.212799 0.024653
vt 0.973448 0.981223
vt 0.092930 0.188465
vt 0.019517 0.017475
vt 0.211943 0.027899
vt 0.972590 0.984471
vt 0.021284 0.211575
vt 0.056121 0.407485
vt 0.136461 0.590507
vt 0.259406 0.745382
vt 0.415338 0.862214
vt 0.592472 0.937315
vt 0.780167 0.974045
vn -0.552200 -0.826400 -0.109800
vn -0.820300 -0.548100 -0.163200
vn -0.962600 -0.191500 -0.191500
vn -0.962600 0.191500 -0.191500
vn -0.820300 0.548100 -0.163200
vn -0.552200 0.826400 -0.109800
vn -0.468100 -0.826400 -0.312800
vn -0.695400 -0.548100 -0.464700
vn -0.816100 -0.191500 -0.545300
vn -0.816100 0.191500 -0.545300
vn -0.695400 0.548100 -0.464700
vn -0.468100 0.826400 -0.312800
vn -0.312800 -0.826400 -0.468100
vn -0.464700 -0.548100 -0.695400
vn -0.545300 -0.191500 -0.816100
vn -0.545300 0.191500 -0.816100
vn -0.464700 0.548100 -0.695400
vn -0.312800 0.826400 -0.468100
vn -0.109800 -0.826400 -0.552200
vn -0.163200 -0.548100 -0.820300
vn -0.191500 -0.191500 -0.962600
vn -0.191500 0.191500 -0.962600
vn -0.163200 0.548100 -0.820300
vn -0.109800 0.826400 -0.552200
vn 0.109800 -0.826400 -0.552200
vn 0.163200 -0.548100 -0.820300
vn 0.191500 -0.191500 -0.962600
vn 0.191500 0.191500 -0.962600
vn 0.163200 0.548100 -0.820300
vn 0.109800 0.826400 -0.552200
vn 0.312800 -0.826400 -0.468100
vn 0.464700 -0.548100 -0.695400
vn 0.545300 -0.191500 -0.816100
vn 0.545300 0.191500 -0.816100
vn 0.464700 0.548100 -0.695400
vn 0.312800 0.826400 -0.468100
vn 0.468100 -0.826400 -0.312800
vn 0.695400 -0.548100 -0.464700
vn 0.816100 -0.191500 -0.545300
vn 0.816100 0.191500 -0.545300
vn 0.695400 0.548100 -0.464700
vn 0.468100 0.826400 -0.312800
vn 0.552200 -0.826400 -0.109800
vn 0.820300 -0.548100 -0.163200
vn 0.962600 -0.191500 -0.191500
vn 0.962600 0.191500 -0.191500
vn 0.820300 0.548100 -0.163200
vn 0.552200 0.826400 -0.109800
vn 0.552200 -0.826400 0.109800
vn 0.820300 -0.548100 0.163200
vn 0.962600 -0.191500 0.191500
vn 0.962600 0.191500 0.191500
vn 0.820300 0.548100 0.163200
vn 0.552200 0.826400 0.109800
vn 0.468100 -0.826400 0.312800
vn 0.695400 -0.548100 0.464700
vn 0.816100 -0.191500 0.545300
vn 0.816100 0.191500 0.545300
vn 0.695400 0.548100 0.464700
vn 0.468100 0.826400 0.312800
vn 0.312800 -0.826400 0.468100
vn 0.464700 -0.548100 0.695400
vn 0.545300 -0.191500 0.816100
vn 0.545300 0.191500 0.816100
vn 0.464700 0.548100 0.695400
vn 0.312800 0.826400 0.468100
vn 0.109800 -0.826400 0.552200
vn 0.163200 -0.548100 0.820300
vn 0.191500 -0.191500 0.962600
vn 0.191500 0.191500 0.962600
vn 0.163200 0.548100 0.820300
vn 0.109800 0.826400 0.552200
vn -0.109800 -0.826400 0.552200
vn -0.163200 -0.548100 0.820300
vn -0.191500 -0.191500 0.962600
vn -0.191500 0.191500 0.962600
vn -0.163200 0.548100 0.820300
vn -0.109800 0.826400 0.552200
vn -0.312800 -0.826400 0.468100
vn -0.464700 -0.548100 0.695400
vn -0.545300 -0.191500 0.816100
vn -0.545300 0.191500 0.816100
vn -0.464700 0.548100 0.695400
vn -0.312800 0.826400 0.468100
vn -0.468100 -0.826400 0.312800
vn -0.695400 -0.548100 0.464700
vn -0.816100 -0.191500 0.545300
vn -0.816100 0.191500 0.545300
vn -0.695400 0.548100 0.464700
vn -0.468100 0.826400 0.312800
vn -0.194900 -0.980000 -0.038800
vn -0.194900 0.980000 -0.038800
vn -0.165300 -0.980000 -0.110400
vn -0.165300 0.980000 -0.110400
vn -0.110400 -0.980000 -0.165300
vn -0.110400 0.980000 -0.165300
vn -0.038800 -0.980000 -0.194900
vn -0.038800 0.980000 -0.194900
vn 0.038800 -0.980000 -0.194900
vn 0.038800 0.980000 -0.194900
vn 0.110400 -0.980000 -0.165300
vn 0.110400 0.980000 -0.165300
vn 0.165300 -0.980000 -0.110400
vn 0.165300 0.980000 -0.110400
vn 0.194900 -0.980000 -0.038800
vn 0.194900 0.980000 -0.038800
vn 0.194900 -0.980000 0.038800
vn 0.194900 0.980000 0.038800
vn 0.165300 -0.980000 0.110400
vn 0.165300 0.980000 0.110400
vn 0.110400 -0.980000 0.165300
vn 0.110400 0.980000 0.165300
vn 0.038800 -0.980000 0.194900
vn 0.038800 0.980000 0.194900
vn -0.038800 -0.980000 0.194900
vn -0.038800 0.980000 0.194900
vn -0.110400 -0.980000 0.165300
vn -0.110400 0.980000 0.165300
vn -0.165300 -0.980000 0.110400
vn -0.165300 0.980000 0.110400
vn -0.194900 -0.980000 0.038800
vn -0.552200 -0.826400 0.109800
vn -0.820300 -0.548100 0.163200
vn -0.962600 -0.191500 0.191500
vn -0.962600 0.191500 0.191500
vn -0.820300 0.548100 0.163200
vn -0.552200 0.826400 0.109800
vn -0.194900 0.980000 0.038800
s off
f 7/1/1 6/2/1 13/3/1
f 5/4/2 12/5/2 13/3/2
f 4/6/3 11/7/3 12/5/3
f 3/8/4 10/9/4 11/7/4
f 2/10/5 9/11/5 10/9/5
f 1/12/6 8/13/6 9/11/6
f 13/3/7 20/14/7 21/15/7
f 12/5/8 19/16/8 20/14/8
f 11/7/9 18/17/9 19/16/9
f 10/9/10 17/18/10 18/17/10
f 9/11/11 16/19/11 17/18/11
f 8/13/12 15/20/12 16/19/12
f 21/15/13 20/14/13 28/21/13
f 19/16/14 27/22/14 28/21/14
f 18/17/15 26/23/15 27/22/15
f 18/17/16 17/18/16 25/24/16
f 17/18/17 16/19/17 24/25/17
f 15/20/18 23/26/18 24/25/18
f 28/21/19 35/27/19 36/28/19
f 28/21/20 27/22/20 34/29/20
f 26/23/21 33/30/21 34/29/21
f 25/24/22 32/31/22 33/30/22
f 24/25/23 31/32/23 32/31/23
f 23/26/24 30/33/24 31/32/24
f 35/34/25 42/35/25 43/36/25
f 34/37/26 41/38/26 42/35/26
f 33/39/27 40/40/27 41/38/27
f 32/41/28 39/42/28 40/40/28
f 31/43/29 38/44/29 39/42/29
f 30/45/30 37/46/30 38/44/30
f 42/35/31 50/47/31 51/48/31
f 41/38/32 49/49/32 50/47/32
f 41/38/33 40/40/33 48/50/33
f 39/42/34 47/51/34 48/50/34
f 38/44/35 46/52/35 47/51/35
f 38/44/36 37/46/36 45/53/36
f 50/47/37 57/54/37 58/55/37
f 49/49/38 56/56/38 57/54/38
f 48/50/39 55/57/39 56/56/39
f 48/50/40 47/51/40 54/58/40
f 47/51/41 46/52/41 53/59/41
f 46/52/42 45/53/42 52/60/42
f 57/54/43 64/61/43 65/62/43
f 56/56/44 63/63/44 64/61/44
f 55/57/45 62/64/45 63/63/45
f 54/58/46 61/65/46 62/64/46
f 54/58/47 53/59/47 60/66/47
f 52/60/48 59/67/48 60/66/48
f 64/68/49 71/69/49 72/70/49
f 63/71/50 70/72/50 71/69/50
f 63/71/51 62/73/51 69/74/51
f 61/75/52 68/76/52 69/74/52
f 61/75/53 60/77/53 67/78/53
f 59/79/54 66/80/54 67/78/54
f 71/69/55 78/81/55 79/82/55
f 70/72/56 77/83/56 78/81/56
f 70/72/57 69/74/57 76/84/57
f 68/76/58 75/85/58 76/84/58
f 67/78/59 74/86/59 75/85/59
f 66/80/60 73/87/60 74/86/60
f 79/82/61 78/81/61 85/88/61
f 78/81/62 77/83/62 84/89/62
f 77/83/63 76/84/63 83/90/63
f 75/85/64 82/91/64 83/90/64
f 74/86/65 81/92/65 82/91/65
f 73/87/66 80/93/66 81/92/66
f 85/88/67 92/94/67 93/95/67
f 84/89/68 91/96/68 92/94/68
f 83/90/69 90/97/69 91/96/69
f 82/91/70 89/98/70 90/97/70
f 81/92/71 88/99/71 89/98/71
f 80/93/72 87/100/72 88/99/72
f 92/101/73 99/102/73 100/103/73
f 91/104/74 98/105/74 99/102/74
f 90/106/75 97/107/75 98/105/75
f 89/108/76 96/109/76 97/107/76
f 89/108/77 88/110/77 95/111/77
f 87/112/78 94/113/78 95/111/78
f 99/102/79 106/114/79 107/115/79
f 98/105/80 105/116/80 106/114/80
f 97/107/81 104/117/81 105/116/81
f 97/107/82 96/109/82 103/118/82
f 96/109/83 95/111/83 102/119/83
f 94/113/84 101/120/84 102/119/84
f 106/114/85 113/121/85 114/122/85
f 105/116/86 112/123/86 113/121/86
f 105/116/87 104/117/87 111/124/87
f 103/118/88 110/125/88 111/124/88
f 103/118/89 102/119/89 109/126/89
f 101/120/90 108/127/90 109/126/90
f 22/128/91 7/1/91 14/129/91
f 1/12/92 44/130/92 8/13/92
f 22/128/93 14/129/93 21/15/93
f 8/13/94 44/130/94 15/20/94
f 22/128/95 21/15/95 29/131/95
f 15/20/96 44/130/96 23/26/96
f 22/128/97 29/131/97 36/28/97
f 23/26/98 44/130/98 30/33/98
f 22/132/99 36/133/99 43/36/99
f 30/45/100 44/134/100 37/46/100
f 22/132/101 43/36/101 51/48/101
f 37/46/102 44/134/102 45/53/102
f 22/132/103 51/48/103 58/55/103
f 45/53/104 44/134/104 52/60/104
f 22/132/105 58/55/105 65/62/105
f 52/60/106 44/134/106 59/67/106
f 22/135/107 65/136/107 72/70/107
f 59/79/108 44/137/108 66/80/108
f 22/135/109 72/70/109 79/82/109
f 66/80/110 44/137/110 73/87/110
f 22/135/111 79/82/111 86/138/111
f 73/87/112 44/137/112 80/93/112
f 22/135/113 86/138/113 93/95/113
f 80/93/114 44/137/114 87/100/114
f 22/139/115 93/140/115 100/103/115
f 87/112/116 44/141/116 94/113/116
f 22/139/117 100/103/117 107/115/117
f 94/113/118 44/141/118 101/120/118
f 22/139/119 107/115/119 114/122/119
f 101/120/120 44/141/120 108/127/120
f 22/139/121 114/122/121 7/142/121
f 114/122/122 113/121/122 6/143/122
f 113/121/123 112/123/123 5/144/123
f 111/124/124 4/145/124 5/144/124
f 110/125/125 3/146/125 4/145/125
f 109/126/126 2/147/126 3/146/126
f 108/127/127 1/148/127 2/147/127
f 108/127/128 44/141/128 1/148/128
f 14/129/1 7/1/1 13/3/1
f 6/2/2 5/4/2 13/3/2
f 5/4/3 4/6/3 12/5/3
f 4/6/4 3/8/4 11/7/4
f 3/8/5 2/10/5 10/9/5
f 2/10/6 1/12/6 9/11/6
f 14/129/7 13/3/7 21/15/7
f 13/3/8 12/5/8 20/14/8
f 12/5/9 11/7/9 19/16/9
f 11/7/10 10/9/10 18/17/10
f 10/9/11 9/11/11 17/18/11
f 9/11/12 8/13/12 16/19/12
f 29/131/13 21/15/13 28/21/13
f 20/14/14 19/16/14 28/21/14
f 19/16/15 18/17/15 27/22/15
f 26/23/16 18/17/16 25/24/16
f 25/24/17 17/18/17 24/25/17
f 16/19/18 15/20/18 24/25/18
f 29/131/19 28/21/19 36/28/19
f 35/27/20 28/21/20 34/29/20
f 27/22/21 26/23/21 34/29/21
f 26/23/22 25/24/22 33/30/22
f 25/24/23 24/25/23 32/31/23
f 24/25/24 23/26/24 31/32/24
f 36/133/25 35/34/25 43/36/25
f 35/34/26 34/37/26 42/35/26
f 34/37/27 33/39/27 41/38/27
f 33/39/28 32/41/28 40/40/28
f 32/41/29 31/43/29 39/42/29
f 31/43/30 30/45/30 38/44/30
f 43/36/31 42/35/31 51/48/31
f 42/35/32 41/38/32 50/47/32
f 49/49/33 41/38/33 48/50/33
f 40/40/34 39/42/34 48/50/34
f 39/42/35 38/44/35 47/51/35
f 46/52/36 38/44/36 45/53/36
f 51/48/37 50/47/37 58/55/37
f 50/47/38 49/49/38 57/54/38
f 49/49/39 48/50/39 56/56/39
f 55/57/40 48/50/40 54/58/40
f 54/58/41 47/51/41 53/59/41
f 53/59/42 46/52/42 52/60/42
f 58/55/43 57/54/43 65/62/43
f 57/54/44 56/56/44 64/61/44
f 56/56/45 55/57/45 63/63/45
f 55/57/46 54/58/46 62/64/46
f 61/65/47 54/58/47 60/66/47
f 53/59/48 52/60/48 60/66/48
f 65/136/49 64/68/49 72/70/49
f 64/68/50 63/71/50 71/69/50
f 70/72/51 63/71/51 69/74/51
f 62/73/52 61/75/52 69/74/52
f 68/76/53 61/75/53 67/78/53
f 60/77/54 59/79/54 67/78/54
f 72/70/55 71/69/55 79/82/55
f 71/69/56 70/72/56 78/81/56
f 77/83/57 70/72/57 76/84/57
f 69/74/58 68/76/58 76/84/58
f 68/76/59 67/78/59 75/85/59
f 67/78/60 66/80/60 74/86/60
f 86/138/61 79/82/61 85/88/61
f 85/88/62 78/81/62 84/89/62
f 84/89/63 77/83/63 83/90/63
f 76/84/64 75/85/64 83/90/64
f 75/85/65 74/86/65 82/91/65
f 74/86/66 73/87/66 81/92/66
f 86/138/67 85/88/67 93/95/67
f 85/88/68 84/89/68 92/94/68
f 84/89/69 83/90/69 91/96/69
f 83/90/70 82/91/70 90/97/70
f 82/91/71 81/92/71 89/98/71
f 81/92/72 80/93/72 88/99/72
f 93/140/73 92/101/73 100/103/73
f 92/101/74 91/104/74 99/102/74
f 91/104/75 90/106/75 98/105/75
f 90/106/76 89/108/76 97/107/76
f 96/109/77 89/108/77 95/111/77
f 88/110/78 87/112/78 95/111/78
f 100/103/79 99/102/79 107/115/79
f 99/102/80 98/105/80 106/114/80
f 98/105/81 97/107/81 105/116/81
f 104/117/82 97/107/82 103/118/82
f 103/118/83 96/109/83 102/119/83
f 95/111/84 94/113/84 102/119/84
f 107/115/85 106/114/85 114/122/85
f 106/114/86 105/116/86 113/121/86
f 112/123/87 105/116/87 111/124/87
f 104/117/88 103/118/88 111/124/88
f 110/125/89 103/118/89 109/126/89
f 102/119/90 101/120/90 109/126/90
f 7/142/122 114/122/122 6/143/122
f 6/143/123 113/121/123 5/144/123
f 112/123/124 111/124/124 5/144/124
f 111/124/125 110/125/125 4/145/125
f 110/125/126 109/126/126 3/146/126
f 109/126/127 108/127/127 2/147/127
