# Blender v2.71 (sub 0) OBJ File: ''
# www.blender.org
o Cylinder
v -0.000000 3.200000 -1.300000
v 0.497488 3.200000 -1.201043
v 0.919239 3.200000 -0.919239
v 1.201043 3.200000 -0.497488
v 1.300000 3.200000 0.000000
v 1.201043 3.200000 0.497489
v 0.919239 3.200000 0.919239
v 0.497489 3.200000 1.201043
v 0.000000 3.200000 1.300000
v -0.497488 3.200000 1.201044
v -0.919239 3.200000 0.919239
v -1.201043 3.200000 0.497489
v -1.300000 3.200000 -0.000000
v -1.201043 3.200000 -0.497489
v -0.919239 3.200000 -0.919239
v -0.497488 3.200000 -1.201044
v 0.494975 4.200000 -0.494975
v 0.646716 4.200000 0.267878
v 0.494975 4.200000 0.494975
v -0.267878 4.200000 0.646716
v -0.494975 4.200000 0.494975
v -0.646716 4.200000 0.267879
v 0.000000 5.539808 0.640000
v 0.000000 4.899808 0.832000
v 0.244917 5.539808 0.591283
v 0.318393 4.899809 0.768668
v 0.452548 5.539808 0.452548
v 0.588313 4.899808 0.588313
v 0.591283 5.539808 0.244917
v 0.768668 4.899808 0.318393
v 0.640000 5.539808 -0.000000
v 0.832000 4.899808 -0.000000
v 0.591283 5.539808 -0.244918
v 0.768668 4.899808 -0.318393
v 0.452548 5.539808 -0.452549
v 0.588313 4.899808 -0.588313
v 0.244917 5.539808 -0.591283
v 0.318393 4.899808 -0.768668
v 0.000000 5.539808 -0.640000
v 0.000000 4.899808 -0.832000
v -0.244917 5.539808 -0.591283
v -0.318392 4.899808 -0.768668
v -0.452548 5.539808 -0.452549
v -0.588313 4.899808 -0.588313
v -0.591283 5.539808 -0.244918
v -0.768668 4.899808 -0.318393
v -0.640000 5.539808 -0.000000
v -0.832000 4.899808 -0.000000
v -0.591283 5.539808 0.244917
v -0.768668 4.899808 0.318393
v -0.452548 5.539808 0.452548
v -0.588313 4.899808 0.588313
v -0.244917 5.539809 0.591283
v -0.318392 4.899808 0.768668
v 0.000000 4.200000 0.700000
v 0.267878 4.200000 0.646716
v 0.700000 4.200000 0.000000
v 0.646716 4.200000 -0.267878
v 0.267878 4.200000 -0.646716
v 0.000000 4.200000 -0.700000
v -0.267878 4.200000 -0.646716
v -0.494975 4.200000 -0.494975
v -0.646716 4.200000 -0.267878
v -0.700000 4.200000 0.000000
v 0.000000 2.200000 -1.000000
v 0.000000 0.996169 -1.673100
v -0.382683 2.200000 -0.923880
v -0.640268 0.996169 -1.545743
v -0.707107 2.200000 -0.707107
v -1.183060 0.996168 -1.183061
v -0.923880 2.200000 -0.382683
v -1.545743 0.996168 -0.640268
v -1.000000 2.199999 0.000000
v -1.673100 0.996168 0.000000
v -0.923880 2.200000 0.382684
v -1.545743 0.996168 0.640268
v -0.707107 2.200000 0.707107
v -1.183060 0.996168 1.183061
v -0.382683 2.200000 0.923880
v -0.640268 0.996169 1.545743
v -0.000000 2.200000 1.000000
v -0.000000 0.996169 1.673100
v 0.382683 2.200000 0.923880
v 0.640268 0.996169 1.545743
v 0.707107 2.200000 0.707107
v 1.183060 0.996169 1.183061
v 0.923880 2.200000 0.382684
v 1.545743 0.996169 0.640268
v 1.000000 2.200000 -0.000000
v 1.673101 0.996169 -0.000000
v 0.923879 2.200000 -0.382684
v 1.545743 0.996169 -0.640268
v 0.707106 2.200000 -0.707107
v 1.183060 0.996169 -1.183061
v 0.382683 2.200000 -0.923880
v 0.640267 0.996169 -1.545743
v 0.000000 0.004944 -1.001000
v -0.383066 0.004944 -0.924803
v -0.707814 0.004943 -0.707814
v -0.924803 0.004943 -0.383066
v -1.001000 0.004943 0.000000
v -0.924803 0.004943 0.383066
v -0.707814 0.004943 0.707814
v -0.383066 0.004944 0.924803
v 0.000000 0.004944 1.001000
v 0.383066 0.004944 0.924804
v 0.707814 0.004944 0.707814
v 0.924804 0.004944 0.383066
v 1.001001 0.004944 0.000000
v 0.924804 0.004944 -0.383066
v 0.707814 0.004944 -0.707814
v 0.383066 0.004944 -0.924804
v -0.150000 2.984848 -0.928008
v -0.150000 3.580132 -3.149637
v 0.150000 3.580132 -3.149637
v 0.150000 2.984848 -0.928008
v -0.150000 3.274626 -0.850362
v -0.150000 3.869910 -3.071991
v 0.150000 3.869910 -3.071991
v 0.150000 3.274626 -0.850362
v -0.150000 2.531545 3.071992
v -0.150000 3.126829 0.850363
v 0.150000 3.126829 0.850363
v 0.150000 2.531545 3.071992
v -0.150000 2.821323 3.149638
v -0.150000 3.416607 0.928009
v 0.150000 3.416607 0.928009
v 0.150000 2.821323 3.149638
vt 0.369917 0.656195
vt 0.486853 0.628859
vt 0.494698 0.658683
vt 0.357041 0.467583
vt 0.472050 0.472910
vt 0.471961 0.504434
vt 0.364013 0.616550
vt 0.480700 0.598239
vt 0.548418 0.559573
vt 0.545927 0.531649
vt 0.607657 0.527911
vt 0.544827 0.503627
vt 0.545098 0.475517
vt 0.607456 0.478072
vt 0.546732 0.447339
vt 0.609243 0.453020
vt 0.549729 0.419117
vt 0.612298 0.427948
vt 0.554096 0.390873
vt 0.616640 0.402903
vt 0.559853 0.362621
vt 0.567026 0.334359
vt 0.629316 0.353066
vt 0.575658 0.306045
vt 0.585812 0.277543
vt 0.647673 0.303856
vt 0.597601 0.248495
vt 0.659233 0.279656
vt 0.611501 0.217642
vt 0.632547 0.647402
vt 0.573292 0.673198
vt 0.564620 0.643626
vt 0.624163 0.624752
vt 0.557698 0.615331
vt 0.473557 0.441327
vt 0.613002 0.576998
vt 0.552326 0.587427
vt 0.237685 0.793425
vt 0.259140 0.784538
vt 0.303818 0.892400
vt 0.476217 0.567178
vt 0.473330 0.535874
vt 0.486462 0.346376
vt 0.493574 0.314757
vt 0.512124 0.252138
vt 0.523704 0.221732
vt 0.502117 0.283280
vt 0.284885 0.264640
vt 0.157898 0.250626
vt 0.161491 0.203635
vt 0.165724 0.153178
vt 0.302728 0.179627
vt 0.170751 0.096403
vt 0.314609 0.136092
vt 0.177050 0.024969
vt 0.139967 0.784150
vt 0.143875 0.723511
vt 0.271764 0.708206
vt 0.145831 0.674363
vt 0.269011 0.665873
vt 0.146801 0.629986
vt 0.267019 0.624509
vt 0.147272 0.587765
vt 0.265626 0.584017
vt 0.147553 0.546490
vt 0.147875 0.505535
vt 0.264804 0.504697
vt 0.148411 0.464537
vt 0.265547 0.465387
vt 0.149298 0.423248
vt 0.150635 0.381465
vt 0.269809 0.386442
vt 0.152489 0.338975
vt 0.273540 0.346454
vt 0.029386 0.739655
vt 0.039862 0.702219
vt 0.154903 0.295502
vt 0.278509 0.305903
vt 0.042384 0.291464
vt 0.042437 0.246906
vt 0.042113 0.201508
vt 0.046282 0.624160
vt 0.046333 0.584685
vt 0.044617 0.504059
vt 0.040764 0.155122
vt 0.037238 0.107574
vt 0.042474 0.378435
vt 0.044621 0.663248
vt 0.045610 0.544674
vt 0.043659 0.462816
vt 0.042917 0.420942
vt 0.029386 0.058776
vt 0.042328 0.335286
vt 0.138849 0.967141
vt 0.029386 0.894000
vt 0.211989 0.857678
vt 0.380368 0.282932
vt 0.372552 0.320499
vt 0.366453 0.357609
vt 0.361903 0.394412
vt 0.358788 0.431031
vt 0.267182 0.426029
vt 0.356638 0.504203
vt 0.357600 0.541062
vt 0.264861 0.544163
vt 0.360004 0.578389
vt 0.378235 0.698678
vt 0.390258 0.748751
vt 0.275940 0.750228
vt 0.328105 0.093188
vt 0.437464 0.117051
vt 0.417532 0.163623
vt 0.402301 0.205254
vt 0.390151 0.244672
vt 0.480762 0.378040
vt 0.476463 0.409698
vt 0.503992 0.686928
vt 0.536872 0.193434
vt 0.776021 0.789592
vt 0.776021 0.764850
vt 0.965711 0.764851
vt 0.751280 0.789591
vt 0.751280 0.764851
vt 0.561609 0.789588
vt 0.561610 0.764848
vt 0.965711 0.789593
vt 0.990453 0.764851
vt 0.751277 0.575172
vt 0.776014 0.979272
vt 0.964148 0.764610
vt 0.964148 0.789351
vt 0.774468 0.789350
vt 0.988889 0.764611
vt 0.988889 0.789351
vt 0.749727 0.764609
vt 0.749727 0.789350
vt 0.560047 0.789350
vt 0.774468 0.764609
vt 0.774467 0.979030
vt 0.749726 0.979030
vt 0.749727 0.574928
vt 0.774468 0.574928
vt 0.609667 0.552581
vt 0.606926 0.503054
vt 0.622299 0.377929
vt 0.637746 0.328357
vt 0.672676 0.255958
vt 0.617764 0.601086
vt 0.320239 0.809846
vt 0.303818 0.793425
vt 0.329126 0.831301
vt 0.329126 0.854524
vt 0.320239 0.875979
vt 0.282362 0.901287
vt 0.259140 0.901287
vt 0.237685 0.892400
vt 0.221264 0.875979
vt 0.212377 0.854524
vt 0.212377 0.831301
vt 0.221264 0.809846
vt 0.282363 0.784538
vt 0.292879 0.222552
vt 0.172406 0.798438
vt 0.068969 0.798438
vt 0.138849 0.784538
vt 0.198089 0.824121
vt 0.198089 0.927557
vt 0.211989 0.894000
vt 0.172406 0.953241
vt 0.102527 0.967141
vt 0.068969 0.953241
vt 0.043286 0.927557
vt 0.029386 0.857678
vt 0.043286 0.824121
vt 0.102527 0.784538
vt 0.990453 0.789593
vt 0.776018 0.575172
vt 0.751273 0.979271
vt 0.560047 0.764609
vn -0.716600 0.507200 0.478800
vn 0.716600 0.507200 0.478800
vn -0.478800 0.507200 0.716600
vn 0.187200 0.282300 0.940900
vn 0.533000 0.282300 0.797700
vn 0.797700 0.282300 0.533000
vn 0.940900 0.282300 0.187200
vn 0.940900 0.282300 -0.187200
vn 0.797700 0.282300 -0.533000
vn 0.533000 0.282300 -0.797700
vn 0.187200 0.282300 -0.940900
vn -0.187200 0.282300 -0.940900
vn -0.533000 0.282300 -0.797700
vn -0.797700 0.282300 -0.533000
vn -0.940900 0.282300 -0.187200
vn -0.940900 0.282300 0.187200
vn -0.797700 0.282300 0.533000
vn 0.964400 -0.181900 -0.191800
vn -0.187200 0.282300 0.940900
vn -0.533000 0.282300 0.797700
vn 0.000000 1.000000 -0.000000
vn 0.191800 -0.181900 0.964400
vn 0.191800 -0.181900 -0.964400
vn -0.817600 -0.181900 -0.546300
vn -0.191800 -0.181900 -0.964400
vn -0.964400 -0.181900 -0.191800
vn -0.546300 -0.181900 -0.817600
vn -0.171100 0.480800 -0.860000
vn -0.487100 0.480800 -0.729000
vn -0.729000 0.480800 -0.487100
vn -0.860000 0.480800 -0.171100
vn -0.860000 0.480800 0.171100
vn -0.729000 0.480800 0.487100
vn -0.487100 0.480800 0.729000
vn -0.171100 0.480800 0.860000
vn 0.171100 0.480800 0.860000
vn 0.487100 0.480800 0.729000
vn 0.729000 0.480800 0.487100
vn 0.860000 0.480800 0.171100
vn 0.860000 0.480800 -0.171100
vn 0.729000 0.480800 -0.487100
vn -0.816700 -0.553800 0.162400
vn 0.171100 0.480800 -0.860000
vn 0.487100 0.480800 -0.729000
vn 0.162400 -0.553800 -0.816700
vn -0.162400 -0.553800 -0.816700
vn -0.162400 -0.553800 0.816700
vn 0.692300 -0.553800 0.462600
vn -0.692300 -0.553800 -0.462600
vn 0.692300 -0.553800 -0.462600
vn -0.692300 -0.553800 0.462600
vn 0.162400 -0.553800 0.816700
vn 0.816700 -0.553800 0.162400
vn -0.816700 -0.553800 -0.162400
vn 0.462600 -0.553800 -0.692400
vn -0.462600 -0.553800 0.692400
vn 0.462600 -0.553800 0.692300
vn -0.462600 -0.553800 -0.692400
vn 0.816700 -0.553800 -0.162400
vn 0.000000 -1.000000 0.000000
vn 0.187200 -0.282300 -0.940900
vn 0.533000 -0.282300 -0.797700
vn 0.797700 -0.282300 -0.533000
vn 0.940900 -0.282300 -0.187200
vn 0.940900 -0.282300 0.187200
vn 0.797700 -0.282300 0.533000
vn 0.533000 -0.282300 0.797700
vn 0.187200 -0.282300 0.940900
vn -0.187200 -0.282300 0.940900
vn -0.533000 -0.282300 0.797700
vn -0.797700 -0.282300 0.533000
vn -0.940900 -0.282300 0.187200
vn -0.940900 -0.282300 -0.187200
vn -0.797700 -0.282300 -0.533000
vn 0.845300 0.507200 0.168100
vn -0.187200 -0.282300 -0.940900
vn -0.533000 -0.282300 -0.797700
vn -0.168100 0.507200 -0.845300
vn 0.168100 0.507200 -0.845300
vn 0.168100 0.507200 0.845300
vn 0.716600 0.507200 -0.478800
vn -0.716600 0.507200 -0.478800
vn -0.168100 0.507200 0.845300
vn -0.845300 0.507200 0.168100
vn 0.845300 0.507200 -0.168100
vn -0.478800 0.507200 -0.716600
vn 0.478800 0.507200 0.716600
vn 0.478800 0.507200 -0.716600
vn -0.845300 0.507200 -0.168100
vn -0.191800 -0.181900 0.964400
vn 0.817600 -0.181900 0.546300
vn -0.817600 -0.181900 0.546300
vn 0.817600 -0.181900 -0.546300
vn 0.964400 -0.181900 0.191800
vn -0.546300 -0.181900 0.817600
vn 0.546300 -0.181900 -0.817600
vn 0.546300 -0.181900 0.817600
vn -0.964400 -0.181900 0.191800
vn -1.000000 -0.000000 0.000000
vn 0.000000 0.258800 -0.965900
vn 1.000000 0.000000 0.000000
vn 0.000000 -0.258800 0.965900
vn 0.000000 -0.965900 -0.258800
vn 0.000000 0.965900 0.258800
vn 0.462600 -0.553800 -0.692300
s off
f 11/1/1 21/2/1 22/3/1
f 6/4/2 18/5/2 19/6/2
f 11/1/3 10/7/3 20/8/3
f 24/9/4 26/10/4 25/11/4
f 25/11/5 26/10/5 28/12/5
f 28/12/6 30/13/6 29/14/6
f 30/13/7 32/15/7 31/16/7
f 32/15/8 34/17/8 33/18/8
f 34/17/9 36/19/9 35/20/9
f 35/20/10 36/19/10 38/21/10
f 38/21/11 40/22/11 39/23/11
f 39/23/12 40/22/12 42/24/12
f 42/24/13 44/25/13 43/26/13
f 43/26/14 44/25/14 46/27/14
f 45/28/15 46/27/15 48/29/15
f 47/30/16 48/31/16 50/32/16
f 49/33/17 50/32/17 52/34/17
f 34/17/18 32/15/18 57/35/18
f 53/36/19 54/37/19 24/9/19
f 52/34/20 54/37/20 53/36/20
f 53/38/21 23/39/21 37/40/21
f 24/9/22 55/41/22 56/42/22
f 38/21/23 59/43/23 60/44/23
f 44/25/24 62/45/24 63/46/24
f 42/24/25 40/22/25 60/44/25
f 48/29/26 46/27/26 63/46/26
f 42/24/27 61/47/27 62/45/27
f 65/48/28 66/49/28 68/50/28
f 68/50/29 70/51/29 69/52/29
f 70/51/30 72/53/30 71/54/30
f 71/54/31 72/53/31 74/55/31
f 74/56/32 76/57/32 75/58/32
f 76/57/33 78/59/33 77/60/33
f 78/59/34 80/61/34 79/62/34
f 79/62/35 80/61/35 82/63/35
f 81/64/36 82/63/36 84/65/36
f 84/65/37 86/66/37 85/67/37
f 86/66/38 88/68/38 87/69/38
f 87/69/39 88/68/39 90/70/39
f 90/70/40 92/71/40 91/72/40
f 92/71/41 94/73/41 93/74/41
f 74/56/42 101/75/42 102/76/42
f 96/77/43 66/49/43 65/48/43
f 94/73/44 96/77/44 95/78/44
f 96/77/45 112/79/45 97/80/45
f 66/49/46 97/80/46 98/81/46
f 80/61/47 104/82/47 105/83/47
f 88/68/48 86/66/48 107/84/48
f 70/51/49 99/85/49 100/86/49
f 94/73/50 92/71/50 110/87/50
f 76/57/51 102/76/51 103/88/51
f 82/63/52 105/83/52 106/89/52
f 88/68/53 108/90/53 109/91/53
f 72/53/54 100/86/54 101/92/54
f 96/77/55 94/73/55 111/93/55
f 80/61/56 78/59/56 103/88/56
f 84/65/57 106/89/57 107/84/57
f 68/50/58 98/81/58 99/85/58
f 90/70/59 109/91/59 110/87/59
f 107/94/60 103/95/60 111/96/60
f 1/97/61 2/98/61 95/78/61
f 95/78/62 2/98/62 3/99/62
f 93/74/63 3/99/63 4/100/63
f 4/100/64 5/101/64 89/102/64
f 5/101/65 6/4/65 87/69/65
f 6/4/66 7/103/66 85/67/66
f 7/103/67 8/104/67 83/105/67
f 8/104/68 9/106/68 81/64/68
f 9/106/69 10/7/69 79/62/69
f 10/7/70 11/1/70 77/60/70
f 11/1/71 12/107/71 75/58/71
f 12/107/72 13/108/72 73/109/72
f 73/110/73 13/111/73 14/112/73
f 71/54/74 14/112/74 15/113/74
f 5/101/75 57/35/75 18/5/75
f 16/114/76 1/97/76 65/48/76
f 69/52/77 15/113/77 16/114/77
f 1/97/78 16/114/78 61/47/78
f 1/97/79 60/44/79 59/43/79
f 8/104/80 56/42/80 55/41/80
f 3/99/81 17/115/81 58/116/81
f 14/112/82 63/46/82 62/45/82
f 10/7/83 9/106/83 55/41/83
f 12/107/84 22/3/84 64/117/84
f 4/100/85 58/116/85 57/35/85
f 15/113/86 62/45/86 61/47/86
f 7/103/87 19/6/87 56/42/87
f 2/98/88 59/43/88 17/115/88
f 13/111/89 64/118/89 63/46/89
f 24/9/90 54/37/90 20/8/90
f 30/13/91 28/12/91 19/6/91
f 50/32/92 22/3/92 21/2/92
f 34/17/93 58/116/93 17/115/93
f 30/13/94 18/5/94 57/35/94
f 52/34/95 21/2/95 20/8/95
f 36/19/96 17/115/96 59/43/96
f 28/12/97 26/10/97 56/42/97
f 48/31/98 64/117/98 22/3/98
f 118/119/99 114/120/99 113/121/99
f 119/122/100 115/123/100 114/120/100
f 120/124/101 116/125/101 115/123/101
f 117/126/102 113/121/102 116/127/102
f 114/120/103 115/123/103 116/128/103
f 119/122/104 118/119/104 117/129/104
f 126/130/99 122/131/99 121/132/99
f 127/133/100 123/134/100 122/131/100
f 128/135/101 124/136/101 123/137/101
f 125/138/102 121/132/102 124/136/102
f 122/139/103 123/140/103 124/136/103
f 127/141/104 126/142/104 125/138/104
f 12/107/1 11/1/1 22/3/1
f 7/103/2 6/4/2 19/6/2
f 21/2/3 11/1/3 20/8/3
f 23/143/4 24/9/4 25/11/4
f 27/144/5 25/11/5 28/12/5
f 27/144/6 28/12/6 29/14/6
f 29/14/7 30/13/7 31/16/7
f 31/16/8 32/15/8 33/18/8
f 33/18/9 34/17/9 35/20/9
f 37/145/10 35/20/10 38/21/10
f 37/145/11 38/21/11 39/23/11
f 41/146/12 39/23/12 42/24/12
f 41/146/13 42/24/13 43/26/13
f 45/28/14 43/26/14 46/27/14
f 47/147/15 45/28/15 48/29/15
f 49/33/16 47/30/16 50/32/16
f 51/148/17 49/33/17 52/34/17
f 58/116/18 34/17/18 57/35/18
f 23/143/19 53/36/19 24/9/19
f 51/148/20 52/34/20 53/36/20
f 40/22/23 38/21/23 60/44/23
f 29/149/21 23/39/21 27/150/21
f 29/149/21 31/151/21 33/152/21
f 33/152/21 35/153/21 37/40/21
f 37/40/21 39/154/21 41/155/21
f 41/155/21 43/156/21 45/157/21
f 45/157/21 47/158/21 49/159/21
f 53/38/21 41/155/21 51/160/21
f 23/39/21 29/149/21 37/40/21
f 29/149/21 33/152/21 37/40/21
f 41/155/21 49/159/21 51/160/21
f 23/39/21 25/161/21 27/150/21
f 26/10/22 24/9/22 56/42/22
f 41/155/21 45/157/21 49/159/21
f 53/38/21 37/40/21 41/155/21
f 46/27/24 44/25/24 63/46/24
f 61/47/25 42/24/25 60/44/25
f 64/118/26 48/29/26 63/46/26
f 44/25/27 42/24/27 62/45/27
f 67/162/28 65/48/28 68/50/28
f 67/162/29 68/50/29 69/52/29
f 69/52/30 70/51/30 71/54/30
f 73/110/31 71/54/31 74/55/31
f 73/109/32 74/56/32 75/58/32
f 75/58/33 76/57/33 77/60/33
f 77/60/34 78/59/34 79/62/34
f 81/64/35 79/62/35 82/63/35
f 83/105/36 81/64/36 84/65/36
f 83/105/37 84/65/37 85/67/37
f 85/67/38 86/66/38 87/69/38
f 89/102/39 87/69/39 90/70/39
f 89/102/40 90/70/40 91/72/40
f 91/72/41 92/71/41 93/74/41
f 76/57/42 74/56/42 102/76/42
f 95/78/43 96/77/43 65/48/43
f 93/74/44 94/73/44 95/78/44
f 66/49/45 96/77/45 97/80/45
f 68/50/46 66/49/46 98/81/46
f 82/63/47 80/61/47 105/83/47
f 108/90/48 88/68/48 107/84/48
f 72/53/49 70/51/49 100/86/49
f 111/93/50 94/73/50 110/87/50
f 78/59/51 76/57/51 103/88/51
f 84/65/52 82/63/52 106/89/52
f 90/70/53 88/68/53 109/91/53
f 74/55/54 72/53/54 101/92/54
f 112/79/105 96/77/105 111/93/105
f 104/82/56 80/61/56 103/88/56
f 86/66/57 84/65/57 107/84/57
f 70/51/58 68/50/58 99/85/58
f 92/71/59 90/70/59 110/87/59
f 97/163/60 100/164/60 98/165/60
f 97/163/60 112/166/60 111/96/60
f 109/167/60 107/94/60 110/168/60
f 109/167/60 108/169/60 107/94/60
f 107/94/60 106/170/60 105/171/60
f 105/171/60 104/172/60 103/95/60
f 103/95/60 102/173/60 101/174/60
f 107/94/60 111/96/60 110/168/60
f 111/96/60 100/164/60 97/163/60
f 100/164/60 99/175/60 98/165/60
f 107/94/60 105/171/60 103/95/60
f 93/74/62 95/78/62 3/99/62
f 65/48/61 1/97/61 95/78/61
f 111/96/60 103/95/60 101/174/60
f 111/96/60 101/174/60 100/164/60
f 91/72/63 93/74/63 4/100/63
f 91/72/64 4/100/64 89/102/64
f 89/102/65 5/101/65 87/69/65
f 87/69/66 6/4/66 85/67/66
f 85/67/67 7/103/67 83/105/67
f 83/105/68 8/104/68 81/64/68
f 81/64/69 9/106/69 79/62/69
f 79/62/70 10/7/70 77/60/70
f 77/60/71 11/1/71 75/58/71
f 75/58/72 12/107/72 73/109/72
f 71/54/73 73/110/73 14/112/73
f 69/52/74 71/54/74 15/113/74
f 6/4/75 5/101/75 18/5/75
f 67/162/76 16/114/76 65/48/76
f 67/162/77 69/52/77 16/114/77
f 60/44/78 1/97/78 61/47/78
f 2/98/79 1/97/79 59/43/79
f 9/106/80 8/104/80 55/41/80
f 4/100/81 3/99/81 58/116/81
f 15/113/82 14/112/82 62/45/82
f 20/8/83 10/7/83 55/41/83
f 13/108/84 12/107/84 64/117/84
f 5/101/85 4/100/85 57/35/85
f 16/114/86 15/113/86 61/47/86
f 8/104/87 7/103/87 56/42/87
f 3/99/88 2/98/88 17/115/88
f 14/112/89 13/111/89 63/46/89
f 55/41/90 24/9/90 20/8/90
f 18/5/91 30/13/91 19/6/91
f 52/34/92 50/32/92 21/2/92
f 36/19/93 34/17/93 17/115/93
f 32/15/94 30/13/94 57/35/94
f 54/37/95 52/34/95 20/8/95
f 38/21/96 36/19/96 59/43/96
f 19/6/97 28/12/97 56/42/97
f 50/32/98 48/31/98 22/3/98
f 117/126/99 118/119/99 113/121/99
f 118/119/100 119/122/100 114/120/100
f 119/122/101 120/124/101 115/123/101
f 120/176/102 117/126/102 116/127/102
f 113/177/103 114/120/103 116/128/103
f 120/178/104 119/122/104 117/129/104
f 125/138/99 126/130/99 121/132/99
f 126/130/100 127/133/100 122/131/100
f 127/179/101 128/135/101 123/137/101
f 128/135/102 125/138/102 124/136/102
f 121/132/103 122/139/103 124/136/103
f 128/135/104 127/141/104 125/138/104
